:FULLY-SPECIFIED
:FORCE-ALL-JOINTS-BE-3DOF
:DEGREES
679
root 5.34485 16.3662 1.16043 24.7193 -25.106 -7.70139
lfemur -36.1074 26.8322 -6.68097
ltibia 103.208 0 0
lfoot 10.9984 -5.76053 0
ltoes 6.80532 0 0
rfemur -31.6692 -10.6773 25.1184
rtibia 44.7844 0 0
rfoot -17.2843 -3.82002 0
rtoes -0.188982 0 0
lowerback -0.0687504 -6.47075 -0.375953
upperback -2.03103 -8.69214 0.218654
thorax -1.91233 -4.34085 0.546638
lowerneck -9.15879 -3.92469 0.531035
upperneck 2.36908 -5.44923 2.72276
head 2.37371 -2.63228 0.517467
lclavicle 9.46573e-15 2.24515e-15 0
lhumerus 13.2922 -58.6438 57.5994
lradius 88.7978 0 0
lwrist 29.3639 0 0
lhand -15.6523 -2.64891 0
lfingers 7.12502 0 0
lthumb 10.5358 27.0569 0
rclavicle 9.46573e-15 2.24515e-15 0
rhumerus -49.8135 -13.1035 -36.4291
rradius 77.1021 0 0
rwrist -18.1558 0 0
rhand -29.5555 -46.8179 0
rfingers 7.12502 0 0
rthumb -2.88779 -796.756 0
680
root 5.33537 16.4338 1.24425 26.9429 -26.1235 -10.0427
lfemur -37.3653 26.751 -4.27149
ltibia 106.599 0 0
lfoot 11.4229 -5.7125 0
ltoes 8.24107 0 0
rfemur -29.3351 -9.84808 24.557
rtibia 40.5181 0 0
rfoot -15.9357 -2.94472 0
rtoes -0.831344 0 0
lowerback 0.0619447 -6.43466 -0.459197
upperback -2.02673 -8.6542 0.0375636
thorax -1.99507 -4.32123 0.427673
lowerneck -8.96244 -3.90445 0.5522
upperneck 2.56212 -5.43626 2.85091
head 2.40535 -2.62077 0.558072
lclavicle 7.09734e-15 3.68119e-15 0
lhumerus 15.6907 -56.6925 54.0442
lradius 89.1659 0 0
lwrist 29.586 0 0
lhand -16.1263 -2.99833 0
lfingers 7.12502 0 0
lthumb 10.0785 26.7292 0
rclavicle 7.09734e-15 3.68119e-15 0
rhumerus -49.5803 -13.0453 -34.5372
rradius 78.8081 0 0
rwrist -17.7496 0 0
rhand -29.9813 -46.6033 0
rfingers 7.12502 0 0
rthumb -3.29888 -796.534 0
681
root 5.3264 16.5031 1.31632 29.1698 -27.0471 -12.3855
lfemur -38.5762 26.6548 -1.89541
ltibia 109.797 0 0
lfoot 11.6646 -5.59175 0
ltoes 9.76545 0 0
rfemur -27.0732 -9.0775 24.0247
rtibia 36.2552 0 0
rfoot -14.517 -2.0523 0
rtoes -1.47051 0 0
lowerback 0.194143 -6.38738 -0.566422
upperback -2.02137 -8.60142 -0.150255
thorax -2.07646 -4.29393 0.315139
lowerneck -8.76362 -3.89751 0.569098
upperneck 2.76213 -5.44213 3.00077
head 2.4408 -2.61778 0.60529
lclavicle 4.48734e-15 5.11181e-15 0
lhumerus 17.9102 -54.7432 50.6822
lradius 89.4749 0 0
lwrist 29.7947 0 0
lhand -16.5688 -3.33009 0
lfingers 7.12502 0 0
lthumb 9.65151 26.4165 0
rclavicle 4.48734e-15 5.11181e-15 0
rhumerus -49.305 -12.9547 -32.7622
rradius 80.4877 0 0
rwrist -17.3259 0 0
rhand -30.4154 -46.3879 0
rfingers 7.12502 0 0
rthumb -3.71811 -796.311 0
682
root 5.31799 16.5758 1.38125 31.3001 -27.9157 -14.6295
lfemur -39.7372 26.5259 0.442238
ltibia 112.788 0 0
lfoot 11.7481 -5.41232 0
ltoes 11.3648 0 0
rfemur -24.8901 -8.35772 23.5074
rtibia 32.0534 0 0
rfoot -13.0305 -1.16055 0
rtoes -2.0806 0 0
lowerback 0.329654 -6.32804 -0.693796
upperback -2.0148 -8.53264 -0.343242
thorax -2.15751 -4.25841 0.208342
lowerneck -8.56305 -3.90313 0.580782
upperneck 2.96513 -5.46542 3.16892
head 2.47872 -2.6228 0.658308
lclavicle 1.69459e-15 6.54191e-15 0
lhumerus 19.9543 -52.791 47.4882
lradius 89.7094 0 0
lwrist 29.9871 0 0
lhand -16.9848 -3.64481 0
lfingers 7.12502 0 0
lthumb 9.25013 26.1186 0
rclavicle 1.69459e-15 6.54191e-15 0
rhumerus -48.9768 -12.8318 -31.0948
rradius 82.1434 0 0
rwrist -16.8864 0 0
rhand -30.8519 -46.1669 0
rfingers 7.12502 0 0
rthumb -4.13962 -796.082 0
683
root 5.31023 16.6539 1.44363 33.2339 -28.768 -16.6746
lfemur -40.8451 26.3467 2.73641
ltibia 115.561 0 0
lfoot 11.6984 -5.18826 0
ltoes 13.0253 0 0
rfemur -22.7929 -7.68084 22.9911
rtibia 27.9702 0 0
rfoot -11.4784 -0.287248 0
rtoes -2.63574 0 0
lowerback 0.470287 -6.25578 -0.837489
upperback -2.00687 -8.4467 -0.539834
thorax -2.23924 -4.21411 0.10659
lowerneck -8.36148 -3.92055 0.586305
upperneck 3.16711 -5.50471 3.35198
head 2.51773 -2.63532 0.716313
lclavicle -1.22206e-15 7.9764e-15 0
lhumerus 21.8266 -50.8311 44.4368
lradius 89.8544 0 0
lwrist 30.1603 0 0
lhand -17.3789 -3.94308 0
lfingers 7.12502 0 0
lthumb 8.8697 25.8351 0
rclavicle -1.22206e-15 7.9764e-15 0
rhumerus -48.5846 -12.6767 -29.5257
rradius 83.7778 0 0
rwrist -16.4329 0 0
rhand -31.2847 -45.9357 0
rfingers 7.12502 0 0
rthumb -4.55754 -795.843 0
684
root 5.30315 16.7391 1.50807 34.8711 -29.6426 -18.4204
lfemur -41.8968 26.0997 4.98206
ltibia 118.101 0 0
lfoot 11.5402 -4.93362 0
ltoes 14.7334 0 0
rfemur -20.7883 -7.03899 22.4617
rtibia 24.0631 0 0
rfoot -9.86288 0.549812 0
rtoes -3.11005 0 0
lowerback 0.617851 -6.16972 -0.993671
upperback -1.99743 -8.34242 -0.738471
thorax -2.32265 -4.1605 0.00918827
lowerneck -8.15964 -3.94902 0.58472
upperneck 3.36411 -5.55859 3.54651
head 2.55648 -2.65483 0.778493
lclavicle -4.20374e-15 9.42016e-15 0
lhumerus 23.5308 -48.8585 41.5028
lradius 89.8945 0 0
lwrist 30.3114 0 0
lhand -17.7562 -4.22551 0
lfingers 7.12502 0 0
lthumb 8.50553 25.566 0
rclavicle -4.20374e-15 9.42016e-15 0
rhumerus -48.1177 -12.4894 -28.0456
rradius 85.3936 0 0
rwrist -15.967 0 0
rhand -31.7077 -45.6895 0
rfingers 7.12502 0 0
rthumb -4.96602 -795.59 0
685
root 5.29684 16.8331 1.57918 36.1118 -30.5783 -19.7667
lfemur -42.8893 25.7671 7.17417
ltibia 120.395 0 0
lfoot 11.2984 -4.66244 0
ltoes 16.4754 0 0
rfemur -18.8832 -6.4243 21.9052
rtibia 20.3899 0 0
rfoot -8.18605 1.33285 0
rtoes -3.47765 0 0
lowerback 0.774155 -6.06901 -1.15851
upperback -1.98634 -8.21864 -0.937592
thorax -2.40876 -4.09702 -0.0845567
lowerneck -7.95828 -3.98779 0.575079
upperneck 3.55213 -5.62564 3.74912
head 2.5936 -2.68083 0.844036
lclavicle -7.19161e-15 1.08781e-14 0
lhumerus 25.0704 -46.8684 38.6608
lradius 89.8146 0 0
lwrist 30.4374 0 0
lhand -18.1214 -4.49271 0
lfingers 7.12502 0 0
lthumb 8.15297 25.3109 0
rclavicle -7.19161e-15 1.08781e-14 0
rhumerus -47.5652 -12.27 -26.6453
rradius 86.9933 0 0
rwrist -15.4907 0 0
rhand -32.1149 -45.4237 0
rfingers 7.12502 0 0
rthumb -5.35919 -795.317 0
686
root 5.29134 16.9379 1.66157 36.856 -31.6138 -20.6133
lfemur -43.8195 25.3314 9.30768
ltibia 122.432 0 0
lfoot 10.9978 -4.38878 0
ltoes 18.2376 0 0
rfemur -17.0846 -5.82887 21.3076
rtibia 17.0081 0 0
rfoot -6.45015 2.04407 0
rtoes -3.71268 0 0
lowerback 0.941007 -5.95276 -1.32818
upperback -1.97344 -8.0742 -1.13564
thorax -2.49857 -4.02314 -0.175338
lowerneck -7.75814 -4.03612 0.556437
upperneck 3.72718 -5.70446 3.9564
head 2.62773 -2.71281 0.912129
lclavicle -1.01268e-14 1.23551e-14 0
lhumerus 26.449 -44.8557 35.8855
lradius 89.5994 0 0
lwrist 30.5356 0 0
lhand -18.4794 -4.74528 0
lfingers 7.12502 0 0
lthumb 7.80733 25.0698 0
rclavicle -1.01268e-14 1.23551e-14 0
rhumerus -46.9161 -12.0186 -25.3155
rradius 88.5794 0 0
rwrist -15.0056 0 0
rhand -32.5001 -45.1334 0
rfingers 7.12502 0 0
rthumb -5.73119 -795.02 0
687
root 5.28671 17.0551 1.75983 37.0039 -32.7878 -20.8599
lfemur -44.6844 24.775 11.3776
ltibia 124.196 0 0
lfoot 10.6632 -4.12668 0
ltoes 20.0063 0 0
rfemur -15.3991 -5.24483 20.6547
rtibia 13.9753 0 0
rfoot -4.65736 2.6657 0
rtoes -3.78924 0 0
lowerback 1.12022 -5.82013 -1.49885
upperback -1.95859 -7.90793 -1.33104
thorax -2.59311 -3.93831 -0.26385
lowerneck -7.55994 -4.09324 0.527845
upperneck 3.88529 -5.79363 4.16494
head 2.65752 -2.75027 0.98196
lclavicle -1.29505e-14 1.3856e-14 0
lhumerus 27.6704 -42.8157 33.1518
lradius 89.2338 0 0
lwrist 30.603 0 0
lhand -18.835 -4.98383 0
lfingers 7.12502 0 0
lthumb 7.46394 24.8423 0
rclavicle -1.29505e-14 1.3856e-14 0
rhumerus -46.1596 -11.7353 -24.0469
rradius 90.1546 0 0
rwrist -14.5135 0 0
rhand -32.8574 -44.8141 0
rfingers 7.12502 0 0
rthumb -6.07616 -794.694 0
688
root 5.28303 17.1867 1.87858 36.4554 -34.139 -20.4062
lfemur -45.4808 24.0802 13.3788
ltibia 125.677 0 0
lfoot 10.3194 -3.89019 0
ltoes 21.7678 0 0
rfemur -13.8338 -4.66429 19.9325
rtibia 11.3491 0 0
rfoot -2.80986 3.17995 0
rtoes -3.68148 0 0
lowerback 1.3136 -5.67023 -1.66668
upperback -1.94163 -7.71865 -1.52224
thorax -2.69337 -3.84197 -0.350786
lowerneck -7.36444 -4.15842 0.488357
upperneck 4.02246 -5.89173 4.37132
head 2.68159 -2.79269 1.05272
lclavicle -1.56037e-14 1.53858e-14 0
lhumerus 28.738 -40.7435 30.4343
lradius 88.7025 0 0
lwrist 30.6367 0 0
lhand -19.1931 -5.20897 0
lfingers 7.12502 0 0
lthumb 7.11813 24.6283 0
rclavicle -1.56037e-14 1.53858e-14 0
rhumerus -45.2848 -11.4202 -22.8302
rradius 91.7216 0 0
rwrist -14.0162 0 0
rhand -33.1805 -44.461 0
rfingers 7.12502 0 0
rthumb -6.38824 -794.335 0
689
root 5.28034 17.3343 2.02242 35.1106 -35.7061 -19.152
lfemur -46.2057 23.2294 15.3063
ltibia 126.86 0 0
lfoot 9.9913 -3.69335 0
ltoes 23.5084 0 0
rfemur -12.3955 -4.07938 19.127
rtibia 9.18714 0 0
rfoot -0.909847 3.56903 0
rtoes -3.3635 0 0
lowerback 1.52295 -5.50219 -1.82785
upperback -1.92243 -7.50521 -1.70769
thorax -2.80038 -3.7336 -0.436839
lowerneck -7.17236 -4.2309 0.437026
upperneck 4.1347 -5.99736 4.57216
head 2.69859 -2.83958 1.12359
lclavicle -1.80278e-14 1.69493e-14 0
lhumerus 29.6556 -38.634 27.7076
lradius 87.9904 0 0
lwrist 30.6338 0 0
lhand -19.5586 -5.42129 0
lfingers 7.12502 0 0
lthumb 6.76523 24.4276 0
rclavicle -1.80278e-14 1.69493e-14 0
rhumerus -44.2808 -11.0733 -21.6562
rradius 93.2827 0 0
rwrist -13.5154 0 0
rhand -33.4636 -44.0694 0
rfingers 7.12502 0 0
rthumb -6.66158 -793.938 0
690
root 5.27872 17.4999 2.19596 32.8694 -37.5278 -16.9971
lfemur -46.856 22.205 17.155
ltibia 127.732 0 0
lfoot 9.70368 -3.55021 0
ltoes 25.2144 0 0
rfemur -11.091 -3.48222 18.2241
rtibia 7.54695 0 0
rfoot 1.0405 3.81515 0
rtoes -2.80943 0 0
lowerback 1.75009 -5.31517 -1.97852
upperback -1.90082 -7.26643 -1.88581
thorax -2.91514 -3.61263 -0.522703
lowerneck -6.98445 -4.30992 0.372905
upperneck 4.21804 -6.10909 4.76402
head 2.70716 -2.89041 1.19375
lclavicle -2.01637e-14 1.85515e-14 0
lhumerus 30.4267 -36.4825 24.9466
lradius 87.0821 0 0
lwrist 30.5914 0 0
lhand -19.9364 -5.62142 0
lfingers 7.12502 0 0
lthumb 6.40056 24.2399 0
rclavicle -2.01637e-14 1.85515e-14 0
rhumerus -43.1368 -10.6947 -20.5156
rradius 94.8407 0 0
rwrist -13.0129 0 0
rhand -33.7005 -43.6345 0
rfingers 7.12502 0 0
rthumb -6.89031 -793.499 0
691
root 5.27821 17.6851 2.40379 29.6321 -39.6429 -13.8412
lfemur -47.4286 20.9894 18.92
ltibia 128.28 0 0
lfoot 9.48137 -3.47483 0
ltoes 26.8722 0 0
rfemur -9.92726 -2.86493 17.2097
rtibia 6.48615 0 0
rfoot 3.03898 3.90054 0
rtoes -1.9934 0 0
lowerback 1.99683 -5.10828 -2.11487
upperback -1.87667 -7.00116 -2.05504
thorax -3.03866 -3.47853 -0.609071
lowerneck -6.80145 -4.39475 0.295046
upperneck 4.26849 -6.22552 4.94351
head 2.70593 -2.9447 1.26241
lclavicle -2.19527e-14 2.01972e-14 0
lhumerus 31.055 -34.284 22.1259
lradius 85.9625 0 0
lwrist 30.5066 0 0
lhand -20.3312 -5.80995 0
lfingers 7.12502 0 0
lthumb 6.01946 24.065 0
rclavicle -2.19527e-14 2.01972e-14 0
rhumerus -41.8417 -10.2845 -19.3992
rradius 96.3982 0 0
rwrist -12.5105 0 0
rhand -33.8851 -43.1517 0
rfingers 7.12502 0 0
rthumb -7.06856 -793.013 0
692
root 5.27889 17.8918 2.65054 25.2986 -42.0901 -9.58401
lfemur -47.9204 19.565 20.5961
ltibia 128.492 0 0
lfoot 9.34919 -3.48124 0
ltoes 28.4681 0 0
rfemur -8.91108 -2.21962 16.0699
rtibia 6.06235 0 0
rfoot 5.08342 3.80739 0
rtoes -0.889535 0 0
lowerback 2.26497 -4.88065 -2.23307
upperback -1.84981 -6.70822 -2.21384
thorax -3.17196 -3.33074 -0.696638
lowerneck -6.62409 -4.48463 0.202503
upperneck 4.28205 -6.34524 5.10722
head 2.69354 -3.00192 1.32875
lclavicle -2.33358e-14 2.18913e-14 0
lhumerus 31.5441 -32.0336 19.2202
lradius 84.6163 0 0
lwrist 30.3765 0 0
lhand -20.7479 -5.98748 0
lfingers 7.12502 0 0
lthumb 5.61724 23.9027 0
rclavicle -2.33358e-14 2.18913e-14 0
rhumerus -40.3848 -9.84276 -18.2976
rradius 97.9576 0 0
rwrist -12.01 0 0
rhand -34.0113 -42.6163 0
rfingers 7.12502 0 0
rthumb -7.19049 -792.475 0
